<?xml version="1.0" encoding="utf-8"?>
<!-- Generator: Adobe Illustrator 22.0.1, SVG Export Plug-In . SVG Version: 6.00 Build 0)  -->
<svg version="1.1" id="Layer_1" xmlns="http://www.w3.org/2000/svg" xmlns:xlink="http://www.w3.org/1999/xlink" x="0px" y="0px"
	 viewBox="0 0 110 110" style="enable-background:new 0 0 110 110;" xml:space="preserve">
<style type="text/css">
	.st0{fill:#BBCFEF;}
	.st1{enable-background:new    ;}
	.st2{fill:#DBDFE6;}
	.st3{fill:#CCD0D9;}
	.st4{fill:#EBEEF4;}
	.st5{fill:#B785FF;}
	.st6{fill:#A46EF2;}
	.st7{fill:#95E2FE;}
	.st8{fill:#4F91FF;}
	.st9{fill:#457AEF;}
	.st10{fill:#3A63DF;}
	.st11{fill:#FFFFFF;}
	.st12{fill:#FFDE9B;}
	.st13{fill:#FFCA6C;}
	.st14{fill:#71D8F8;}
	.st15{opacity:0.6;fill:url(#SVGID_1_);}
	.st16{fill:#FFB63C;}
	.st17{fill:#49E4A3;}
	.st18{fill:#E22525;}
	.st19{fill:#F04343;}
	.st20{fill:#FF6161;}
	.st21{fill:#CBDBF4;}
	.st22{fill:#DBE6FA;}
	.st23{fill:#EBF2FF;}
	.st24{fill:#4DCDF3;}
	.st25{fill:#4F575F;}
	.st26{fill:#D30707;}
	.st27{fill:#6DCB60;}
	.st28{fill:#3D4449;}
	.st29{fill:#181E1E;}
	.st30{fill:#2A3134;}
	.st31{fill:#21201F;}
	.st32{fill:#444B52;}
	.st33{fill:url(#SVGID_2_);}
	.st34{fill:url(#SVGID_3_);}
	.st35{fill:url(#SVGID_4_);}
	.st36{fill:url(#SVGID_5_);}
	.st37{fill:url(#SVGID_6_);}
	.st38{fill:url(#SVGID_7_);}
	.st39{fill:url(#SVGID_8_);}
	.st40{fill:url(#SVGID_9_);}
	.st41{fill:url(#SVGID_10_);}
	.st42{fill:url(#SVGID_11_);}
	.st43{fill:url(#SVGID_12_);}
	.st44{fill:url(#SVGID_13_);}
	.st45{fill:url(#SVGID_14_);}
	.st46{fill:url(#SVGID_15_);}
	.st47{fill:url(#SVGID_16_);}
	.st48{fill:url(#SVGID_17_);}
	.st49{fill:#39C988;}
	.st50{opacity:0.5;fill:url(#SVGID_18_);}
	.st51{opacity:0.5;fill:url(#SVGID_19_);}
	.st52{opacity:0.5;fill:url(#SVGID_20_);}
	.st53{fill:#28AF6E;}
	.st54{fill:#A9B1C1;}
	.st55{fill:#C4C2C0;}
	.st56{fill:#304CCF;}
	.st57{opacity:0.8;}
	.st58{fill:url(#SVGID_21_);}
	.st59{fill:url(#SVGID_22_);}
	.st60{fill:url(#SVGID_23_);}
	.st61{opacity:0.2;}
	.st62{fill:#9156E5;}
	.st63{opacity:0.3;}
	.st64{fill:url(#SVGID_24_);}
	.st65{fill:url(#SVGID_25_);}
	.st66{fill:url(#SVGID_26_);}
	.st67{fill:url(#SVGID_27_);}
	.st68{fill:url(#SVGID_28_);}
	.st69{fill:#F3B2A1;}
	.st70{fill:#FDC8B8;}
	.st71{fill:url(#SVGID_29_);}
	.st72{fill:url(#SVGID_30_);}
	.st73{fill:url(#SVGID_31_);}
	.st74{fill:url(#SVGID_32_);}
	.st75{fill:url(#SVGID_33_);}
	.st76{fill:#2D2C2B;}
	.st77{opacity:0.5;fill:url(#SVGID_34_);}
	.st78{opacity:0.5;fill:url(#SVGID_35_);}
	.st79{opacity:0.5;fill:url(#SVGID_36_);}
	.st80{opacity:0.5;fill:url(#SVGID_37_);}
	.st81{opacity:0.5;fill:url(#SVGID_38_);}
	.st82{fill:#BDC6D7;}
	.st83{opacity:0.6;}
	.st84{fill:#BCC1CB;}
	.st85{fill:#189453;}
	.st86{opacity:0.5;fill:url(#SVGID_39_);}
	.st87{opacity:0.5;fill:url(#SVGID_40_);}
	.st88{opacity:0.5;fill:url(#SVGID_41_);}
	.st89{opacity:0.5;fill:url(#SVGID_42_);}
	.st90{opacity:0.5;fill:url(#SVGID_43_);}
	.st91{opacity:0.5;fill:url(#SVGID_44_);}
	.st92{fill:#E99B8A;}
	.st93{fill:url(#SVGID_45_);}
	.st94{fill:url(#SVGID_46_);}
	.st95{fill:url(#SVGID_47_);}
	.st96{fill:url(#SVGID_48_);}
	.st97{fill:#C44141;}
	.st98{fill:#E9E8E6;}
	.st99{fill:#434240;}
	.st100{fill:url(#SVGID_49_);}
	.st101{opacity:0.4;}
	.st102{fill:#B0B8CF;}
	.st103{fill:#F45170;}
	.st104{fill:#FFD06C;}
	.st105{fill:#6BB4F9;}
	.st106{fill:#78E75A;}
	.st107{opacity:0.35;}
	.st108{fill:#57B3FE;}
	.st109{opacity:0.5;fill:url(#SVGID_50_);}
	.st110{fill:#9EA9C9;}
	.st111{fill:#E3E7F0;}
	.st112{fill:#C9CEE2;}
	.st113{fill:none;}
	.st114{fill:#4C5C75;}
	.st115{fill:#E9E7FC;}
	.st116{fill:#DEDFFB;}
	.st117{fill:url(#SVGID_51_);}
	.st118{opacity:0.5;fill:url(#SVGID_52_);}
	.st119{fill:#F8F9FE;}
	.st120{fill:#1D2943;}
	.st121{fill:#BF7D5A;}
	.st122{fill:#D1D0D9;}
	.st123{fill:#111D33;}
	.st124{fill:#8FABFE;}
	.st125{fill:#678AEE;}
	.st126{fill:#3B475A;}
	.st127{fill:url(#SVGID_53_);}
	.st128{fill:url(#SVGID_54_);}
	.st129{opacity:0.7;}
	.st130{fill:url(#SVGID_55_);}
	.st131{fill:url(#SVGID_56_);}
	.st132{fill:url(#SVGID_57_);}
	.st133{fill:url(#SVGID_58_);}
	.st134{fill:url(#SVGID_59_);}
	.st135{fill:url(#SVGID_60_);}
	.st136{fill:url(#SVGID_61_);}
	.st137{fill:#FFA20D;}
	.st138{fill:url(#SVGID_62_);}
	.st139{fill:url(#SVGID_63_);}
	.st140{fill:url(#SVGID_64_);}
	.st141{fill:url(#SVGID_65_);}
	.st142{opacity:0.6;fill:url(#SVGID_66_);}
	.st143{fill:#CCCFED;}
	.st144{opacity:0.5;fill:url(#SVGID_67_);}
	.st145{fill:url(#SVGID_68_);}
	.st146{fill:url(#SVGID_69_);}
	.st147{fill:url(#SVGID_70_);}
	.st148{fill:url(#SVGID_71_);}
	.st149{fill:url(#SVGID_72_);}
	.st150{fill:url(#SVGID_73_);}
	.st151{fill:url(#SVGID_74_);}
	.st152{fill:url(#SVGID_75_);}
	.st153{fill:url(#SVGID_76_);}
	.st154{fill:url(#SVGID_77_);}
	.st155{fill:url(#SVGID_78_);}
	.st156{fill:url(#SVGID_79_);}
	.st157{fill:#2CAAFF;}
	.st158{fill:#29C3ED;}
	.st159{fill:url(#SVGID_80_);}
	.st160{fill:url(#SVGID_81_);}
	.st161{fill:#8D5FD1;}
	.st162{fill:#2A2F33;}
	.st163{opacity:0.5;}
	.st164{fill:#7E3FD8;}
	.st165{opacity:0.5;fill:url(#SVGID_82_);}
	.st166{opacity:0.5;fill:url(#SVGID_83_);}
	.st167{opacity:0.6;fill:url(#SVGID_84_);}
	.st168{fill:url(#SVGID_85_);}
	.st169{fill:url(#SVGID_86_);}
	.st170{fill:url(#SVGID_87_);}
	.st171{fill:url(#SVGID_88_);}
	.st172{fill:url(#SVGID_89_);}
	.st173{fill:url(#SVGID_90_);}
	.st174{fill:url(#SVGID_91_);}
	.st175{fill:url(#SVGID_92_);}
	.st176{fill:#5094FF;}
	.st177{fill:#3498DB;}
	.st178{fill:url(#SVGID_93_);}
	.st179{fill:url(#SVGID_94_);}
	.st180{fill:url(#SVGID_95_);}
	.st181{fill:url(#SVGID_96_);}
	.st182{fill:url(#SVGID_97_);}
	.st183{fill:url(#SVGID_98_);}
	.st184{fill:url(#SVGID_99_);}
	.st185{fill:url(#SVGID_100_);}
	.st186{fill:url(#SVGID_101_);}
	.st187{fill:url(#SVGID_102_);}
	.st188{fill:url(#SVGID_103_);}
	.st189{fill:url(#SVGID_104_);}
	.st190{fill:url(#SVGID_105_);}
	.st191{fill:url(#SVGID_106_);}
	.st192{fill:url(#SVGID_107_);}
	.st193{fill:url(#SVGID_108_);}
	.st194{fill:url(#SVGID_109_);}
	.st195{fill:url(#SVGID_110_);}
	.st196{fill:url(#SVGID_111_);}
	.st197{fill:url(#SVGID_112_);}
	.st198{fill:url(#SVGID_113_);}
	.st199{fill:url(#SVGID_114_);}
	.st200{fill:url(#SVGID_115_);}
	.st201{fill:url(#SVGID_116_);}
	.st202{fill:url(#SVGID_117_);}
	.st203{fill:url(#SVGID_118_);}
	.st204{fill:#DF3260;}
	.st205{fill:#FFB961;}
	.st206{fill:url(#SVGID_119_);}
	.st207{fill:url(#SVGID_120_);}
	.st208{opacity:0.5;fill:url(#SVGID_121_);}
	.st209{fill:#B4B2C2;}
	.st210{fill:#F3F1FC;}
	.st211{fill:url(#SVGID_122_);}
	.st212{fill:url(#SVGID_123_);}
	.st213{fill:#6B6E79;}
	.st214{fill:#ADB1C2;}
	.st215{fill:#9B9FAF;}
	.st216{fill:#414F65;}
	.st217{fill:#29313F;}
	.st218{fill:#72D561;}
	.st219{fill:#FEBC1F;}
	.st220{fill:#F1F6FA;}
	.st221{fill:#B28AFD;}
	.st222{fill:url(#SVGID_124_);}
	.st223{fill:url(#SVGID_125_);}
	.st224{opacity:0.5;fill:url(#SVGID_126_);}
	.st225{fill:url(#SVGID_127_);}
	.st226{fill:url(#SVGID_128_);}
	.st227{fill:url(#SVGID_129_);}
	.st228{fill:url(#SVGID_130_);}
	.st229{opacity:0.6;fill:url(#SVGID_131_);}
	.st230{opacity:0.6;fill:url(#SVGID_132_);}
	.st231{opacity:0.5;fill:url(#SVGID_133_);}
	.st232{fill:#F9CF6B;}
	.st233{fill:#989FB2;}
	.st234{fill:#E93565;}
	.st235{opacity:0.25;}
	.st236{fill:#FED57A;}
	.st237{fill:url(#SVGID_134_);}
	.st238{fill:url(#SVGID_135_);}
	.st239{fill:url(#SVGID_136_);}
	.st240{fill:#566DF9;}
	.st241{fill:url(#SVGID_137_);}
	.st242{fill:url(#SVGID_138_);}
	.st243{fill:url(#SVGID_139_);}
	.st244{fill:url(#SVGID_140_);}
	.st245{fill:url(#SVGID_141_);}
	.st246{fill:url(#SVGID_142_);}
	.st247{fill:url(#SVGID_143_);}
	.st248{fill:url(#SVGID_144_);}
	.st249{opacity:0.5;fill:url(#SVGID_145_);}
	.st250{fill:#93ACD1;}
	.st251{fill:url(#SVGID_146_);}
	.st252{fill:url(#SVGID_147_);}
	.st253{fill:url(#SVGID_148_);}
	.st254{fill:url(#SVGID_149_);}
	.st255{fill:url(#SVGID_150_);}
	.st256{fill:url(#SVGID_151_);}
	.st257{fill:url(#SVGID_152_);}
	.st258{fill:url(#SVGID_153_);}
	.st259{fill:#804F59;}
	.st260{fill:#70444D;}
	.st261{fill:#512E35;}
	.st262{opacity:0.8;fill:url(#SVGID_154_);}
	.st263{opacity:0.8;fill:url(#SVGID_155_);}
	.st264{fill:url(#SVGID_156_);}
	.st265{fill:url(#SVGID_157_);}
	.st266{fill:url(#SVGID_158_);}
	.st267{fill:url(#SVGID_159_);}
	.st268{fill:url(#SVGID_160_);}
	.st269{fill:url(#SVGID_161_);}
	.st270{fill:url(#SVGID_162_);}
	.st271{fill:#C4C7CF;}
	.st272{fill:url(#SVGID_163_);}
	.st273{fill:url(#SVGID_164_);}
	.st274{opacity:0.5;fill:url(#SVGID_165_);}
	.st275{fill:url(#SVGID_166_);}
	.st276{fill:url(#SVGID_167_);}
	.st277{fill:#AFB2B9;}
	.st278{fill:#7A7C81;}
	.st279{fill:url(#SVGID_168_);}
	.st280{fill:#AFBCD2;}
	.st281{fill:url(#SVGID_169_);}
	.st282{fill:url(#SVGID_170_);}
	.st283{fill:url(#SVGID_171_);}
	.st284{fill:url(#SVGID_172_);}
	.st285{fill:url(#SVGID_173_);}
	.st286{fill:url(#SVGID_174_);}
	.st287{fill:url(#SVGID_175_);}
	.st288{fill:url(#SVGID_176_);}
	.st289{fill:#AFBDD2;}
	.st290{fill:url(#SVGID_177_);}
	.st291{fill:url(#SVGID_178_);}
	.st292{fill:url(#SVGID_179_);}
	.st293{fill:url(#SVGID_180_);}
	.st294{fill:url(#SVGID_181_);}
	.st295{fill:url(#SVGID_182_);}
	.st296{fill:url(#SVGID_183_);}
	.st297{fill:url(#SVGID_184_);}
	.st298{fill:#162034;}
	.st299{opacity:0.35;fill:#8FABFE;}
	.st300{fill:url(#SVGID_185_);}
	.st301{fill:url(#SVGID_186_);}
	.st302{fill:url(#SVGID_187_);}
	.st303{fill:url(#SVGID_188_);}
	.st304{fill:#DBA660;}
	.st305{fill:#FFD475;}
	.st306{fill:url(#SVGID_189_);}
	.st307{fill:url(#SVGID_190_);}
	.st308{fill:url(#SVGID_191_);}
	.st309{fill:url(#SVGID_192_);}
	.st310{fill:url(#SVGID_193_);}
	.st311{fill:url(#SVGID_194_);}
	.st312{fill:url(#SVGID_195_);}
	.st313{fill:url(#SVGID_196_);}
	.st314{fill:url(#SVGID_197_);}
	.st315{fill:url(#SVGID_198_);}
	.st316{fill:url(#SVGID_199_);}
	.st317{fill:url(#SVGID_200_);}
	.st318{opacity:0.5;fill:url(#SVGID_201_);}
	.st319{fill:url(#SVGID_202_);}
	.st320{fill:url(#SVGID_203_);}
	.st321{fill:url(#SVGID_204_);}
	.st322{fill:url(#SVGID_205_);}
	.st323{fill:url(#SVGID_206_);}
	.st324{fill:url(#SVGID_207_);}
	.st325{fill:url(#SVGID_208_);}
	.st326{fill:url(#SVGID_209_);}
	.st327{fill:url(#SVGID_210_);}
	.st328{fill:url(#SVGID_211_);}
	.st329{fill:#423D9B;}
	.st330{fill:url(#SVGID_212_);}
	.st331{fill:url(#SVGID_213_);}
	.st332{fill:#343F50;}
	.st333{fill:#262E3B;}
	.st334{clip-path:url(#SVGID_215_);enable-background:new    ;}
	.st335{clip-path:url(#SVGID_217_);}
	.st336{fill:#9A9DA3;}
	.st337{clip-path:url(#SVGID_219_);enable-background:new    ;}
	.st338{fill:#76787D;}
	.st339{clip-path:url(#SVGID_221_);}
	.st340{clip-path:url(#SVGID_223_);enable-background:new    ;}
	.st341{clip-path:url(#SVGID_225_);}
	.st342{clip-path:url(#SVGID_227_);enable-background:new    ;}
	.st343{clip-path:url(#SVGID_229_);}
</style>
<g id="_x31_0">
	<g>
		<g>
			<g class="st1">
				<g>
					<g>
						<path class="st69" d="M102.8086929,70.8566208l-0.0089111,4.5951843
							c-0.0199432,7.0396805-4.6462784,14.0684586-13.8897476,19.4401779
							c-18.6035156,10.8111801-48.8756218,10.8112946-67.607048-0.0032959
							C11.878726,89.4475861,7.1710839,82.3023987,7.1913085,75.1684189l0.0088959-4.5951614
							c-0.0202231,7.1339722,4.6874194,14.2791519,14.1116791,19.720253
							c18.7314243,10.8145981,49.0035324,10.8144836,67.607048,0.0033035
							C98.1623993,84.9250946,102.7887344,77.8963089,102.8086929,70.8566208z"/>
					</g>
				</g>
				<g>
					<g>
						<path class="st92" d="M88.9188385,90.2968063c-8.7135162,5.0638504-19.9871445,7.7553482-31.4357109,8.0752258v4.5949402
							c11.4455223-0.3210983,22.7156029-3.0125961,31.4269295-8.0749817
							c9.2434692-5.3717728,13.8698425-12.4005127,13.8897247-19.4402313l0.0089035-4.5951843
							C102.788681,77.8962936,98.1623077,84.9250336,88.9188385,90.2968063z"/>
					</g>
				</g>
				<g>
					<g>
						
							<ellipse transform="matrix(0.0029946 -0.9999955 0.9999955 0.0029946 -15.877202 125.5050507)" class="st70" cx="55.0021248" cy="70.7149353" rx="27.6904125" ry="47.8057518"/>
					</g>
				</g>
			</g>
		</g>
	</g>
	<g>
		<g>
			<g>
				<g>
					<g>
						<g>
							<g>
								<g>
									<g>
										<g>
											<g class="st1">
												<g>
													<g>
														<path class="st21" d="M45.0080643,20.7730675l0.125267,44.4253807c0,0.320694,0.1152382,0.5461502,0.295681,0.6513596
															L63.0869102,76.111824c-0.1803169-0.1052017-0.2955551-0.3306656-0.2955551-0.6513596l-0.1252708-44.4253769
															L45.0080643,20.7730675z"/>
													</g>
												</g>
												<g>
													<g>
														<path class="st23" d="M45.0080643,20.7730675l17.65802,10.2620182
															c0-0.6413918,0.4459038-1.4230366,1.0070457-1.7487488l20.5892372-11.885498
															c0.2856522-0.1653938,0.5361862-0.1803799,0.7215195-0.070158L67.3259888,7.0686631
															c-0.1853333-0.1052675-0.4358673-0.0952363-0.7215195,0.0701575l-20.5892372,11.885498
															C45.4540901,19.3500309,45.0080643,20.1316757,45.0080643,20.7730675z"/>
													</g>
												</g>
												<g>
													<g>
														<path class="st22" d="M63.6741104,29.2874336c-0.5598412,0.323225-1.0094643,1.1056595-1.0076485,1.7453213
															l0.125946,44.4259338c0.0018234,0.6433029,0.4544067,0.9048996,1.0142479,0.5816727l20.5900574-11.8876724
															c0.5598373-0.3232231,1.0094604-1.1057091,1.007637-1.749012l-0.125946-44.4259338
															c-0.0018158-0.6396599-0.4543991-0.901207-1.0142365-0.5779819L63.6741104,29.2874336z"/>
													</g>
												</g>
											</g>
										</g>
									</g>
									<g>
										<g>
											<g>
												<g>
													<g>
														<g>
															<g>
																<g>
																	<g class="st1">
																		<g>
																			<g>
																				<polygon class="st21" points="83.5362625,20.7730675 83.4314499,56.3339233 65.0415268,67.0209808 
																					65.1463394,31.460125 																				"/>
																			</g>
																		</g>
																	</g>
																</g>
																<g>
																	<path class="st0" d="M66.4372559,41.213665l-0.0175781-8.2207031
																		c21.8910065-12.658926,13.9049988-8.0408535,15.7207031-9.0908222l0.0175781,8.2216816L66.4372559,41.213665z
																		 M66.9196777,33.2800713l0.015625,7.0683594l14.7226563-8.5136738l-0.015625-7.0673828L66.9196777,33.2800713z"/>
																</g>
																<g>
																	<path class="st0" d="M66.4372559,51.2468681l-0.0175781-8.2216797l15.7207031-9.0888672l0.0175781,8.2197266
																		C60.2669563,54.8149681,68.2529602,50.1968994,66.4372559,51.2468681z M66.9196777,43.3142509l0.015625,7.0673828
																		l14.7226563-8.5126953l-0.015625-7.0673828L66.9196777,43.3142509z"/>
																</g>
															</g>
															<g>
																<polygon class="st8" points="81.9074707,52.0364265 81.9074707,51.7353668 66.6880951,60.5381775 
																	66.6675797,53.2045135 75.2873154,48.2139206 81.8922043,44.4017067 																"/>
															</g>
															<g>
																<polygon class="st9" points="81.9074707,52.0364265 75.2873154,48.2139206 81.8922043,44.4017067 																
																	"/>
															</g>
															<g>
																<g class="st1">
																	<g>
																		<g>
																			<polygon class="st0" points="93.3166428,53.4757195 93.301239,58.9095268 75.0316391,48.3615685 
																				79.7476044,45.6416321 																			"/>
																		</g>
																	</g>
																	<g>
																		<g>
																			<polygon class="st54" points="93.8479462,53.1669617 93.8325424,58.6007729 93.301239,58.9095268 
																				93.3166428,53.4757195 																			"/>
																		</g>
																	</g>
																	<g>
																		<g>
																			<polygon class="st54" points="79.1760712,61.6933327 79.1606674,67.1271439 78.6275177,67.4369659 
																				78.6429291,62.0031624 																			"/>
																		</g>
																	</g>
																	<g>
																		<g>
																			<polygon class="st23" points="93.8479462,53.1669617 93.3166428,53.4757195 79.7476044,45.6416321 
																				80.2789001,45.3328743 																			"/>
																		</g>
																	</g>
																</g>
															</g>
															<g>
																<polygon class="st25" points="88.6199417,56.2073593 79.1751862,61.6949615 66.6675797,54.4701233 
																	66.6675797,53.2045135 75.0311203,48.3625374 																"/>
															</g>
														</g>
													</g>
												</g>
												<g>
													<g>
														<g>
															<polygon class="st23" points="79.1760712,61.6933327 78.6429291,62.0031624 66.6726456,55.0921173 
																66.6675797,54.47155 															"/>
														</g>
													</g>
													<g>
														<g>
															<polygon class="st0" points="78.6429291,62.0031624 78.6275177,67.4369659 66.6872711,60.5432625 
																66.6726456,55.0921173 															"/>
														</g>
													</g>
													<g>
														<g>
															<g>
																<polygon class="st23" points="95.4104385,53.2129135 78.727356,62.9080658 77.9038925,62.4326401 
																	94.5869751,52.7374878 																"/>
															</g>
														</g>
														<g>
															<g>
																<polygon class="st0" points="95.4104385,53.2129135 95.3950348,58.6467209 78.7119522,68.3418732 
																	78.727356,62.9080658 																"/>
															</g>
														</g>
														<g>
															<g>
																<polygon class="st21" points="78.727356,62.9080658 78.7119522,68.3418732 77.8884888,67.8664474 
																	77.9038925,62.4326401 																"/>
															</g>
														</g>
													</g>
												</g>
											</g>
											<g>
												<g class="st1">
													<g>
														<g>
															<path class="st30" d="M76.1508636,29.4201164l0.1824722,0.1060467
																c-0.0480423-0.0279255-0.1143646-0.023838-0.1875076,0.0183907l-0.1824646-0.106041
																C76.036499,29.3962841,76.1028214,29.3921967,76.1508636,29.4201164z"/>
														</g>
													</g>
													<g>
														<g>
															<path class="st30" d="M72.5510864,32.9597855c-0.1210403-0.0897293-0.2591019-0.0862312-0.2596359-0.2756577
																l0.1824722,0.106041C72.4741592,32.8735313,72.5036011,32.9321899,72.5510864,32.9597855z"/>
														</g>
													</g>
													<g>
														<g>
															<polygon class="st30" points="72.4739227,32.7901688 72.2914505,32.6841278 72.2891312,31.8673973 
																72.4716034,31.9734383 															"/>
														</g>
													</g>
													<g>
														<g>
															<polygon class="st30" points="72.7352142,31.5136738 72.552742,31.4076328 75.9633636,29.4385128 
																76.1458282,29.5445538 															"/>
														</g>
													</g>
													<g>
														<g>
															<path class="st30" d="M72.4716034,31.9734383l-0.1824722-0.106041
																c-0.0004807-0.1709538,0.1175842-0.3754539,0.2636108-0.4597645l0.1824722,0.106041
																C72.5891876,31.5979843,72.4711227,31.8024826,72.4716034,31.9734383z"/>
														</g>
													</g>
													<g>
														<g>
															<path class="st25" d="M76.1458282,29.5445538c0.1460342-0.0843105,0.2648697-0.0165882,0.265358,0.1543674
																l0.0023117,0.8167305c0.0004807,0.167799-0.1175919,0.3722992-0.2636185,0.4566097l-3.410614,1.9691181
																c-0.1460342,0.0843124-0.2648697,0.0165901-0.2653427-0.1512108l-0.0023193-0.8167305
																c-0.0004807-0.1709557,0.1175842-0.3754539,0.2636108-0.4597645L76.1458282,29.5445538z"/>
														</g>
													</g>
												</g>
											</g>
											<g>
												<g class="st1">
													<g>
														<g>
															<path class="st30" d="M76.1508636,39.5487175l0.1824722,0.1060448
																c-0.0480423-0.0279236-0.1143646-0.0238342-0.1875076,0.0183945l-0.1824646-0.106041
																C76.036499,39.5248871,76.1028214,39.5207977,76.1508636,39.5487175z"/>
														</g>
													</g>
													<g>
														<g>
															<path class="st30" d="M72.5510864,43.0883865c-0.1210403-0.0897293-0.2591019-0.0862312-0.2596359-0.2756577
																l0.1824722,0.106041C72.4741592,43.0021324,72.5036011,43.0607948,72.5510864,43.0883865z"/>
														</g>
													</g>
													<g>
														<g>
															<polygon class="st30" points="72.4739227,42.9187698 72.2914505,42.8127289 72.2891312,41.9959984 
																72.4716034,42.1020393 															"/>
														</g>
													</g>
													<g>
														<g>
															<polygon class="st30" points="72.7352142,41.6422768 72.552742,41.5362358 75.9633636,39.5671158 
																76.1458282,39.6731567 															"/>
														</g>
													</g>
													<g>
														<g>
															<path class="st30" d="M72.4716034,42.1020393l-0.1824722-0.106041
																c-0.0004807-0.1709557,0.1175842-0.3754539,0.2636108-0.4597626l0.1824722,0.106041
																C72.5891876,41.7265854,72.4711227,41.9310837,72.4716034,42.1020393z"/>
														</g>
													</g>
													<g>
														<g>
															<path class="st25" d="M76.1458282,39.6731567c0.1460342-0.0843124,0.2648697-0.0165901,0.265358,0.1543655
																l0.0023117,0.8167305c0.0004807,0.1678009-0.1175919,0.3722992-0.2636185,0.4566116l-3.410614,1.96912
																c-0.1460342,0.0843086-0.2648697,0.0165863-0.2653427-0.1512146l-0.0023193-0.8167305
																c-0.0004807-0.1709557,0.1175842-0.3754539,0.2636108-0.4597626L76.1458282,39.6731567z"/>
														</g>
													</g>
												</g>
											</g>
											<g>
												<g class="st1">
													<g>
														<g>
															<path class="st30" d="M88.8607407,58.3334122l0.1824722,0.1060486
																c-0.0480423-0.0279274-0.1143646-0.023838-0.1875,0.0183907l-0.1824722-0.106041
																C88.7463837,58.3095818,88.8126984,58.3054924,88.8607407,58.3334122z"/>
														</g>
													</g>
													<g>
														<g>
															<path class="st30" d="M85.2609634,61.8730812l-0.1824722-0.106041
																c-0.0474777-0.0275917-0.0769272-0.0862541-0.0771637-0.1696129l0.1824722,0.106041
																C85.1840363,61.7868271,85.2134857,61.8454895,85.2609634,61.8730812z"/>
														</g>
													</g>
													<g>
														<g>
															<polygon class="st30" points="85.1837997,61.7034683 85.0013275,61.5974274 84.9990082,60.7806931 
																85.1814804,60.886734 															"/>
														</g>
													</g>
													<g>
														<g>
															<polygon class="st30" points="85.4450912,60.4269714 85.2626266,60.3209305 88.6732407,58.3518105 
																88.8557129,58.4578514 															"/>
														</g>
													</g>
													<g>
														<g>
															<path class="st30" d="M85.1814804,60.886734l-0.1824722-0.106041
																c-0.0004807-0.1709518,0.1175842-0.3754539,0.2636185-0.4597626l0.1824646,0.106041
																C85.2990646,60.5112801,85.1809998,60.7157784,85.1814804,60.886734z"/>
														</g>
													</g>
													<g>
														<g>
															<path class="st25" d="M88.8557129,58.4578514c0.1460266-0.0843124,0.2648621-0.0165901,0.2653503,0.1543655
																l0.0023117,0.8167305c0.0004807,0.1678009-0.1175842,0.3722992-0.2636185,0.4566116l-3.410614,1.96912
																c-0.1460266,0.0843086-0.2648697,0.0165863-0.2653427-0.1512108l-0.0023193-0.8167343
																c-0.0004807-0.1709557,0.1175842-0.3754539,0.2636108-0.4597626L88.8557129,58.4578514z"/>
														</g>
													</g>
												</g>
											</g>
										</g>
									</g>
								</g>
							</g>
						</g>
					</g>
				</g>
			</g>
			<g>
				<g>
					<path class="st20" d="M70.9187164,66.0259933c0.1845779-0.1065674,0.3340225-0.0214996,0.3346176,0.1906891
						l0.0075912,2.6758423c0.0005951,0.2120972-0.1478729,0.4691696-0.3324509,0.575737l-5.5447388,3.2012482
						c-0.1845779,0.1065674-0.3340149,0.0214996-0.3346176-0.1905975l-0.0075912-2.6758423
						c-0.0005951-0.2121887,0.1478729-0.4692535,0.3324509-0.5758209L70.9187164,66.0259933z"/>
				</g>
			</g>
		</g>
		<g>
			<g>
				<path class="st25" d="M62.6234245,15.2576828c0.1362801,0.07868,0.141861,0.205163,0.0016136,0.286665l-9.7451591,5.663269
					c-0.1353912,0.07868-0.3586235,0.0786819-0.4948997,0.0000019l-3.0690651-1.7728806
					c-0.1362801-0.07868-0.1370049-0.207983-0.0016136-0.286665l9.7451591-5.663269
					c0.1402473-0.081501,0.3586235-0.078681,0.4948997-0.0000019L62.6234245,15.2576828z"/>
			</g>
		</g>
		<g>
			<g>
				<g>
					<g>
						<g>
							<path class="st92" d="M27.1315918,88.3806534c-2.9960938-1.7304688-4.6474609-4.0458984-4.6503906-6.5214844
								c-0.0039063-2.4589844,1.6230469-4.7587891,4.5791016-6.4765625c6.0234375-3.5009766,15.8515625-3.5,21.9082031-0.0039063
								c2.9970703,1.7304688,4.6494141,4.0458984,4.6523438,6.5214844c0.0039063,2.4599609-1.6240234,4.7607422-4.5830078,6.4804688
								C43.0271416,91.8747025,33.2002754,91.8834,27.1315918,88.3806534z M27.3317871,75.8494034
								c-2.7832031,1.6171875-4.3134766,3.7509766-4.3105469,6.0097656
								c0.0029297,2.2744141,1.5585938,4.4238281,4.3798828,6.0527344
								c5.9111328,3.4140625,15.4951172,3.4121094,21.3652344,0.0019531
								c2.7851563-1.6191406,4.3183594-3.7539063,4.3144531-6.0126953
								c-0.0029297-2.2744141-1.5595703-4.4248047-4.3818359-6.0537109l0,0
								C42.7999649,72.4406509,33.2147026,72.4307404,27.3317871,75.8494034z"/>
						</g>
					</g>
					<g>
						<g>
							<g>
								<g>
									<g class="st1">
										<g>
											<g>
												<path class="st6" d="M53.3512192,75.4948273l-0.0104485,3.6840363
													c-0.0063858,2.2539749-1.4886284,4.5046616-4.4490929,6.22509
													c-5.9532242,3.4596405-15.6384583,3.4610825-21.6354465-0.0012817
													c-3.016243-1.7414246-4.5222092-4.0269394-4.5157413-6.3088455l0.0104427-3.6840286
													c-0.0064659,2.2818985,1.4995003,4.5674133,4.5157433,6.3088379
													c5.9969883,3.4623642,15.6822224,3.4609222,21.6354465,0.0012894
													C51.862587,79.9994888,53.3448296,77.7488022,53.3512192,75.4948273z"/>
											</g>
										</g>
										<g>
											<g>
												<path class="st5" d="M48.8339691,69.1850967c5.9969902,3.4623642,6.0261497,9.0724182,0.0681534,12.5348282
													c-5.9532242,3.4596329-15.6384583,3.4610748-21.6354465-0.0012894
													c-5.9945774-3.460968-6.0237408-9.071022-0.0705147-12.5306549
													C33.1541595,65.7255707,42.8393898,65.7241287,48.8339691,69.1850967z"/>
											</g>
										</g>
									</g>
								</g>
							</g>
							<g>
								<g>
									<g class="st1">
										<g>
											<g>
												<path class="st13" d="M52.3884468,71.2153015l-0.0097885,3.4522934
													c-0.0059853,2.1121902-1.394989,4.2212982-4.1692276,5.8335114
													c-5.578743,3.242012-14.6547318,3.2433624-20.2744884-0.0012054
													c-2.8265076-1.6318817-4.2377434-3.7736282-4.2316799-5.9119949l0.0097847-3.4522858
													c-0.0060596,2.1383591,1.4051762,4.2801056,4.2316837,5.9119873
													c5.6197529,3.2445679,14.6957455,3.2432175,20.2744884,0.0012054
													C50.9934578,75.4365997,52.3824615,73.3274918,52.3884468,71.2153015z"/>
											</g>
										</g>
									</g>
								</g>
								<g>
									<g class="st1">
										<g>
											<g>
												<path class="st6" d="M53.3512192,67.7073135l-0.0104485,3.6840363
													c-0.0063858,2.2539825-1.4886284,4.5046616-4.4490929,6.2250977
													c-5.9532242,3.4596405-15.6384583,3.4610825-21.6354465-0.0012817
													c-3.016243-1.7414322-4.5222092-4.026947-4.5157413-6.3088455l0.0104427-3.6840363
													c-0.0064659,2.2819061,1.4995003,4.5674133,4.5157433,6.3088455
													c5.9969883,3.4623642,15.6822224,3.4609222,21.6354465,0.0012817
													C51.862587,72.2119827,53.3448296,69.9612961,53.3512192,67.7073135z"/>
											</g>
										</g>
										<g>
											<g>
												<path class="st5" d="M48.8339691,61.3975868c5.9969902,3.462368,6.0261497,9.0724144,0.0681534,12.5348244
													c-5.9532242,3.4596405-15.6384583,3.4610825-21.6354465-0.0012817
													c-5.9945774-3.460968-6.0237408-9.071022-0.0705147-12.5306587
													C33.1541595,57.9380608,42.8393898,57.9366188,48.8339691,61.3975868z"/>
											</g>
										</g>
									</g>
								</g>
							</g>
							<g>
								<g>
									<g class="st1">
										<g>
											<g>
												<path class="st13" d="M52.3884468,71.2153015l-0.0097885,3.4522934
													c-0.0059853,2.1121902-1.394989,4.2212982-4.1692276,5.8335114
													c-5.578743,3.242012-14.6547318,3.2433624-20.2744884-0.0012054
													c-2.8265076-1.6318817-4.2377434-3.7736282-4.2316799-5.9119949l0.0097847-3.4522858
													c-0.0060596,2.1383591,1.4051762,4.2801056,4.2316837,5.9119873
													c5.6197529,3.2445679,14.6957455,3.2432175,20.2744884,0.0012054
													C50.9934578,75.4365997,52.3824615,73.3274918,52.3884468,71.2153015z"/>
											</g>
										</g>
									</g>
								</g>
								<g>
									<g class="st1">
										<g>
											<g>
												<path class="st16" d="M48.219265,77.0488052c-2.6240807,1.5249481-6.0225372,2.3234253-9.4706116,2.4138336v3.4520187
													c3.4445686-0.0916901,6.8392487-0.8900604,9.4607658-2.4135666
													c2.774292-1.6122208,4.1632576-3.7213211,4.1691895-5.8334885l0.0098457-3.4523239
													C52.3823853,73.3274841,50.9934196,75.4365845,48.219265,77.0488052z"/>
											</g>
										</g>
									</g>
								</g>
								<g>
									<g class="st1">
										<g>
											<g>
												<path class="st6" d="M53.3512192,67.7073135l-0.0104485,3.6840363
													c-0.0063858,2.2539825-1.4886284,4.5046616-4.4490929,6.2250977
													c-5.9532242,3.4596405-15.6384583,3.4610825-21.6354465-0.0012817
													c-3.016243-1.7414322-4.5222092-4.026947-4.5157413-6.3088455l0.0104427-3.6840363
													c-0.0064659,2.2819061,1.4995003,4.5674133,4.5157433,6.3088455
													c5.9969883,3.4623642,15.6822224,3.4609222,21.6354465,0.0012817
													C51.862587,72.2119827,53.3448296,69.9612961,53.3512192,67.7073135z"/>
											</g>
										</g>
										<g>
											<g>
												<path class="st5" d="M48.8339691,61.3975868c5.9969902,3.462368,6.0261497,9.0724144,0.0681534,12.5348244
													c-5.9532242,3.4596405-15.6384583,3.4610825-21.6354465-0.0012817
													c-5.9945774-3.460968-6.0237408-9.071022-0.0705147-12.5306587
													C33.1541595,57.9380608,42.8393898,57.9366188,48.8339691,61.3975868z"/>
											</g>
										</g>
									</g>
								</g>
							</g>
							<g>
								<g>
									<g class="st1">
										<g>
											<g>
												<path class="st13" d="M52.3884468,63.4277916l-0.0097885,3.4522972
													c-0.0059853,2.1121902-1.394989,4.2212982-4.1692276,5.8335114
													c-5.578743,3.242012-14.6547318,3.2433624-20.2744884-0.0012054
													c-2.8265076-1.6318893-4.2377434-3.7736359-4.2316799-5.9119949l0.0097847-3.4522896
													c-0.0060596,2.1383553,1.4051762,4.2801018,4.2316837,5.9119911
													c5.6197529,3.2445679,14.6957455,3.2432175,20.2744884,0.0012054
													C50.9934578,67.6490936,52.3824615,65.5399857,52.3884468,63.4277916z"/>
											</g>
										</g>
									</g>
								</g>
								<g>
									<g class="st1">
										<g>
											<g>
												<path class="st6" d="M53.3512192,59.9198074l-0.0104485,3.6840363
													c-0.0063858,2.2539749-1.4886284,4.5046616-4.4490929,6.2250977
													c-5.9532242,3.4596329-15.6384583,3.4610748-21.6354465-0.0012894
													c-3.016243-1.7414246-4.5222092-4.0269394-4.5157413-6.3088455l0.0104427-3.6840286
													c-0.0064659,2.2818985,1.4995003,4.5674133,4.5157433,6.3088455
													c5.9969883,3.4623642,15.6822224,3.4609146,21.6354465,0.0012817
													C51.862587,64.424469,53.3448296,62.1737862,53.3512192,59.9198074z"/>
											</g>
										</g>
										<g>
											<g>
												<path class="st5" d="M48.8339691,53.6100807c5.9969902,3.4623642,6.0261497,9.0724144,0.0681534,12.5348244
													c-5.9532242,3.4596329-15.6384583,3.4610825-21.6354465-0.0012817
													c-5.9945774-3.4609756-6.0237408-9.0710258-0.0705147-12.5306625
													C33.1541595,50.1505508,42.8393898,50.1491089,48.8339691,53.6100807z"/>
											</g>
										</g>
									</g>
								</g>
							</g>
							<g>
								<g>
									<g class="st1">
										<g>
											<g>
												<path class="st13" d="M52.3884468,63.4277916l-0.0097885,3.4522972
													c-0.0059853,2.1121902-1.394989,4.2212982-4.1692276,5.8335114
													c-5.578743,3.242012-14.6547318,3.2433624-20.2744884-0.0012054
													c-2.8265076-1.6318893-4.2377434-3.7736359-4.2316799-5.9119949l0.0097847-3.4522896
													c-0.0060596,2.1383553,1.4051762,4.2801018,4.2316837,5.9119911
													c5.6197529,3.2445679,14.6957455,3.2432175,20.2744884,0.0012054
													C50.9934578,67.6490936,52.3824615,65.5399857,52.3884468,63.4277916z"/>
											</g>
										</g>
									</g>
								</g>
								<g>
									<g class="st1">
										<g>
											<g>
												<path class="st16" d="M48.219265,69.2613068c-2.5956306,1.5084-5.9490509,2.3059006-9.358429,2.4107361v3.4520187
													c3.4060059-0.1060867,6.7555161-0.9035187,9.3485832-2.4104614
													c2.774292-1.6122284,4.1632576-3.7213287,4.1691895-5.8335266l0.0098457-3.4522934
													C52.3823853,65.5399857,50.9934196,67.649086,48.219265,69.2613068z"/>
											</g>
										</g>
									</g>
								</g>
								<g>
									<g class="st1">
										<g>
											<g>
												<path class="st6" d="M53.3512192,59.9198074l-0.0104485,3.6840363
													c-0.0063858,2.2539749-1.4886284,4.5046616-4.4490929,6.2250977
													c-5.9532242,3.4596329-15.6384583,3.4610748-21.6354465-0.0012894
													c-3.016243-1.7414246-4.5222092-4.0269394-4.5157413-6.3088455l0.0104427-3.6840286
													c-0.0064659,2.2818985,1.4995003,4.5674133,4.5157433,6.3088455
													c5.9969883,3.4623642,15.6822224,3.4609146,21.6354465,0.0012817
													C51.862587,64.424469,53.3448296,62.1737862,53.3512192,59.9198074z"/>
											</g>
										</g>
										<g>
											<g>
												<path class="st5" d="M48.8339691,53.6100807c5.9969902,3.4623642,6.0261497,9.0724144,0.0681534,12.5348244
													c-5.9532242,3.4596329-15.6384583,3.4610825-21.6354465-0.0012817
													c-5.9945774-3.4609756-6.0237408-9.0710258-0.0705147-12.5306625
													C33.1541595,50.1505508,42.8393898,50.1491089,48.8339691,53.6100807z"/>
											</g>
										</g>
									</g>
								</g>
							</g>
							<g>
								<g>
									<g class="st1">
										<g>
											<g>
												<path class="st13" d="M52.3884468,55.6402817l-0.0097885,3.4522934
													c-0.0059853,2.1121941-1.394989,4.221302-4.1692276,5.8335114
													c-5.578743,3.242012-14.6547318,3.2433624-20.2744884-0.0012054
													c-2.8265076-1.6318817-4.2377434-3.7736282-4.2316799-5.9119911l0.0097847-3.4522896
													c-0.0060596,2.1383591,1.4051762,4.2801056,4.2316837,5.9119911
													c5.6197529,3.2445641,14.6957455,3.2432137,20.2744884,0.0012016
													C50.9934578,59.8615837,52.3824615,57.7524757,52.3884468,55.6402817z"/>
											</g>
										</g>
									</g>
								</g>
								<g>
									<g class="st1">
										<g>
											<g>
												<path class="st16" d="M48.219265,61.4737778c-2.6194992,1.5222855-6.010807,2.3205605-9.4525452,2.4133263v3.4520531
													c3.4383698-0.094017,6.8257675-0.8922577,9.4426994-2.4130936
													c2.774292-1.6121864,4.1632576-3.7212868,4.1691895-5.8334923l0.0098457-3.4522896
													C52.3823853,57.7524529,50.9934196,59.8615875,48.219265,61.4737778z"/>
											</g>
										</g>
									</g>
								</g>
								<g>
									<g class="st1">
										<g>
											<g>
												<path class="st6" d="M53.3512192,52.1322975l-0.0104485,3.6840363
													c-0.0063858,2.2539787-1.4886284,4.5046616-4.4490929,6.2250977
													c-5.9532242,3.4596367-15.6384583,3.4610786-21.6354465-0.0012856
													c-3.016243-1.7414284-4.5222092-4.0269432-4.5157413-6.3088455l0.0104427-3.6840324
													c-0.0064659,2.2818985,1.4995003,4.5674133,4.5157433,6.3088417
													c5.9969883,3.4623642,15.6822224,3.4609222,21.6354465,0.0012856
													C51.862587,56.6369629,53.3448296,54.3862762,53.3512192,52.1322975z"/>
											</g>
										</g>
										<g>
											<g>
												<path class="st62" d="M48.9020844,81.7199249c-2.8088112,1.6323166-6.4491653,2.4847946-10.1402168,2.5768204v3.6837387
													c3.6874123-0.0934067,7.3235855-0.9457474,10.1298332-2.5765457
													c2.9605026-1.7204361,4.4426422-3.9711151,4.4491119-6.2250977l0.0103836-3.6840057
													C53.3448601,77.7487793,51.862587,79.9994659,48.9020844,81.7199249z"/>
											</g>
										</g>
										<g>
											<g>
												<path class="st62" d="M48.9020844,73.9323959c-2.7953262,1.624527-6.4143753,2.4764328-10.0873604,2.5753708v3.6837387
													c3.669342-0.1002884,7.284214-0.9520874,10.0769768-2.5750656
													c2.9605026-1.7204285,4.4426422-3.9711151,4.4491119-6.2250977l0.0103836-3.6840439
													C53.3448601,69.9612885,51.862587,72.2119675,48.9020844,73.9323959z"/>
											</g>
										</g>
										<g>
											<g>
												<path class="st62" d="M48.9020844,66.1448975c-2.7819786,1.616745-6.3797226,2.4681396-10.0345039,2.5738907v3.6837387
													c3.6511421-0.1070938,7.2447052-0.9583969,10.0241203-2.5735855
													c2.9605026-1.7204285,4.4426422-3.9711456,4.4491119-6.2250977l0.0103836-3.6840401
													C53.3448601,62.1737862,51.862587,64.424469,48.9020844,66.1448975z"/>
											</g>
										</g>
										<g>
											<g>
												<path class="st62" d="M48.9020844,58.3574028c-2.7819786,1.6167412-6.3797226,2.4681396-10.0345039,2.5738869v3.6837387
													c3.6511421-0.1070938,7.2447052-0.9584274,10.0241203-2.573616
													c2.9605026-1.7204323,4.4426422-3.9711151,4.4491119-6.2250977l0.0103836-3.6840096
													C53.3448601,54.3862572,51.862587,56.6369362,48.9020844,58.3574028z"/>
											</g>
										</g>
										<g>
											<g>
												<path class="st5" d="M48.8339691,45.8225708c5.9969902,3.4623642,6.0261497,9.0724144,0.0681534,12.5348244
													c-5.9532242,3.4596367-15.6384583,3.4610786-21.6354465-0.0012856
													c-5.9945774-3.460968-6.0237408-9.071022-0.0705147-12.5306587
													C33.1541595,42.3630409,42.8393898,42.361599,48.8339691,45.8225708z"/>
											</g>
										</g>
									</g>
								</g>
							</g>
							<g>
								<g class="st1">
									<g>
										<g>
											<path class="st62" d="M45.9676476,49.6418037l-0.0054054,1.9067955
												c-0.0033073,1.1666183-0.7704887,2.3315353-2.3027763,3.2220001
												c-4.9211235,2.8598442-13.5470314,0.8354568-13.5354042-3.2660141l0.0054054-1.9067917
												c-0.0033474,1.1810722,0.7761154,2.3640175,2.3372688,3.2653503
												c3.1039391,1.792057,8.116848,1.7913132,11.1981354,0.0006638
												C45.1971588,51.9733391,45.9643402,50.8084259,45.9676476,49.6418037z"/>
										</g>
									</g>
									<g>
										<g>
											<path class="st6" d="M43.6295967,46.3759956c3.1039391,1.7920609,3.1190338,4.6957283,0.0352745,6.487812
												c-3.0812874,1.7906494-8.0941963,1.7913933-11.1981354-0.0006638
												c-3.1026897-1.7913399-3.1177826-4.6950073-0.0364952-6.4856567
												C35.5139961,44.5854034,40.5269051,44.5846596,43.6295967,46.3759956z"/>
										</g>
									</g>
								</g>
							</g>
						</g>
					</g>
				</g>
				<g>
					<g>
						<path class="st11" d="M50.8812485,58.9195824c0,0.529911-0.3673134,1.1742744-0.8309975,1.4391937
							c-0.457653,0.2649193-0.8370247,0.0541763-0.8370247-0.4757385c0-0.529911,0.3733444-1.1741982,0.8309975-1.4391899
							C50.5079079,58.1789284,50.8812485,58.3896713,50.8812485,58.9195824z"/>
					</g>
				</g>
				<g>
					<g>
						<path class="st11" d="M50.8812485,66.7194443c0,0.5299149-0.3673134,1.1742706-0.8309975,1.4391937
							c-0.457653,0.2649155-0.8370247,0.0541763-0.8370247-0.4757385c0-0.5299072,0.3733444-1.174202,0.8309975-1.4391937
							C50.5079079,65.9787903,50.8812485,66.1895294,50.8812485,66.7194443z"/>
					</g>
				</g>
				<g>
					<g>
						<path class="st11" d="M50.8812485,74.51931c0,0.5299072-0.3673134,1.1742706-0.8309975,1.4391861
							c-0.457653,0.2649231-0.8370247,0.0541763-0.8370247-0.4757309c0-0.5299149,0.3733444-1.174202,0.8309975-1.4391937
							C50.5079079,73.7786484,50.8812485,73.9893951,50.8812485,74.51931z"/>
					</g>
				</g>
				<g>
					<g>
						<path class="st11" d="M50.8812485,82.3191681c0,0.5299149-0.3673134,1.1742706-0.8309975,1.4391937
							c-0.457653,0.2649155-0.8370247,0.0541763-0.8370247-0.4757385s0.3733444-1.174202,0.8309975-1.4391937
							C50.5079079,81.5785141,50.8812485,81.7892532,50.8812485,82.3191681z"/>
					</g>
				</g>
				<g>
					<g>
						<path class="st11" d="M67.9451904,69.5803757c0,0.389946-0.2703018,0.8641129-0.6115112,1.0590591
							c-0.3367767,0.1949539-0.6159439,0.0398712-0.6159439-0.3500824c0-0.389946,0.2747345-0.8640594,0.6115112-1.0590668
							C67.6704559,69.0353394,67.9451904,69.1904221,67.9451904,69.5803757z"/>
					</g>
				</g>
				<g>
					<g>
						<path class="st11" d="M69.8483963,68.4815521c0,0.3899536-0.2703018,0.8641205-0.6115112,1.0590668
							c-0.3367767,0.1949463-0.6159439,0.0398712-0.6159439-0.3500824c0-0.389946,0.2747345-0.8640594,0.6115036-1.0590668
							C69.5736618,67.9365234,69.8483963,68.0916061,69.8483963,68.4815521z"/>
					</g>
				</g>
			</g>
			<g>
				<g>
					<path class="st11" d="M38.0667953,52.0472679c-1.3428879,0-2.6023788-0.2998772-3.5463295-0.8448601
						c-1.8292961-1.0528793-1.8740387-2.6847649-0.0234604-3.7601547c1.9271164-1.1165657,5.1129112-1.1313896,7.0770035,0.002594
						C44.704071,49.2555656,42.1971779,52.0472679,38.0667953,52.0472679"/>
				</g>
				<g>
					<path class="st17" d="M41.7845955,49.332386c0,1.8015404-4.071331,2.7238617-6.4148254,1.393692
						c-0.6810913-0.3854027-1.0552673-0.8875999-1.057251-1.409256c0-0.5177727,0.3682556-1.0141258,1.0394402-1.3975792
						c1.4632378-0.8334961,3.8820992-0.8445473,5.3733788,0.0019379
						C41.4064293,48.3085403,41.7826118,48.8087769,41.7845955,49.332386z"/>
				</g>
				<g>
					<path class="st49" d="M41.7844658,49.3320313c0,0.1431503-0.027813,0.2843208-0.0834923,0.4215088
						c-0.6377678,1.603344-4.2773781,2.1414413-6.3306084,0.9722443c-0.4970627-0.2803345-0.8290863-0.6223221-0.9742241-0.9901428
						c-0.0556755-0.1352005-0.0835152-0.276371-0.0835152-0.4195175c0-0.5169525,0.3678207-1.0140152,1.039875-1.397747
						c1.480545-0.8419075,3.8948517-0.8351898,5.3722343,0.0019913
						C41.4067154,48.3080788,41.7824745,48.8091202,41.7844658,49.3320313z"/>
				</g>
				<g>
					<path class="st17" d="M41.7009735,49.75354c-0.6377678,1.603344-4.2773781,2.1414413-6.3306084,0.9722443
						c-0.4970627-0.2803345-0.8290863-0.6223221-0.9742241-0.9901428c0.1431503-0.3598747,0.469223-0.6958885,0.9563599-0.974247
						c1.4735031-0.8420372,3.901535-0.835495,5.3722343,0.0019875C41.2217979,49.045723,41.5558357,49.3876953,41.7009735,49.75354z
						"/>
				</g>
				
					<linearGradient id="SVGID_1_" gradientUnits="userSpaceOnUse" x1="38.0485458" y1="51.3277931" x2="38.0485458" y2="39.9635925">
					<stop  offset="0.3128493" style="stop-color:#49E4A3;stop-opacity:0.7"/>
					<stop  offset="0.4743572" style="stop-color:#4BE6AB;stop-opacity:0.5354719"/>
					<stop  offset="0.7225397" style="stop-color:#50EDC0;stop-opacity:0.2826486"/>
					<stop  offset="1" style="stop-color:#57F7E0;stop-opacity:0"/>
				</linearGradient>
				<path style="opacity:0.5;fill:url(#SVGID_1_);" d="M34.2715454,40.0319252l-0.0005875,9.1436157
					c0,0.5571861,0.3699646,1.1161079,1.1063728,1.541954c2.3260498,1.3416939,6.4488029,0.4214592,6.4488029-1.541954v-9.1436157
					H34.2715454z"/>
			</g>
		</g>
		<g>
			<path class="st8" d="M58.6589355,93.6931534l-6.1835938-3.5986328c-0.0771484-0.0449219-0.1240234-0.1269531-0.1240234-0.2158203
				v-5.3095703l-2.3193359-1.3515625c-0.1191406-0.0693359-0.1591797-0.2226563-0.0898438-0.3417969
				c0.0683594-0.1210938,0.2216797-0.1611328,0.3417969-0.0898438l2.4433594,1.4238281
				c0.0771484,0.0449219,0.1240234,0.1269531,0.1240234,0.2158203v5.3095703l5.9335938,3.453125l17.3525391-10.0859375
				l-6.3769531-3.7080078c-0.0771484-0.0449219-0.1240234-0.1269531-0.1240234-0.2158203v-7.6132813l-2.4306641-1.4140625
				c-0.1191406-0.0693359-0.1591797-0.2226563-0.0898438-0.3417969c0.0683594-0.1191406,0.2216797-0.1611328,0.3417969-0.0898438
				l2.5546875,1.4863281c0.0771484,0.0449219,0.1240234,0.1269531,0.1240234,0.2158203v7.6132813
				c9.0968704,5.2879791,5.9557953,3.4633026,6.6376953,3.859375c0.1688004,0.1130219,0.1400146,0.3638153-0.0400391,0.4404297
				L58.9108887,93.6931534C58.832077,93.738472,58.7383804,93.7388382,58.6589355,93.6931534z"/>
		</g>
	</g>
</g>
</svg>
